<svg preserveAspectRatio="xMidYMid meet" viewBox="0 0 171 24" fill="none" xmlns="http://www.w3.org/2000/svg">
    <path d="M11.4 2.4H12.6V21.6H11.4V2.4Z" fill="#3C538F"/>
    <path d="M2.4 11.4H21.6V12.6H2.4V11.4Z" fill="#3C538F"/>
    <path d="M4.78739 5.63621L5.63589 4.78768L19.2122 18.364L18.3637 19.2125L4.78739 5.63621Z" fill="#9BB2F9"/>
    <path d="M4.78739 18.3638L18.3637 4.78748L19.2122 5.63601L5.63589 19.2123L4.78739 18.3638Z" fill="#9BB2F9"/>
    <path d="M7.2 12C7.2 13.273 7.70571 14.4939 8.60589 15.3941C9.50606 16.2943 10.727 16.8 12 16.8C13.273 16.8 14.4939 16.2943 15.3941 15.3941C16.2943 14.4939 16.8 13.273 16.8 12C16.8 10.727 16.2943 9.50606 15.3941 8.60589C14.4939 7.70571 13.273 7.2 12 7.2C10.727 7.2 9.50606 7.70571 8.60589 8.60589C7.70571 9.50606 7.2 10.727 7.2 12Z"
          fill="#3C538F"/>
    <path d="M9.6 2.4C9.6 3.03652 9.85286 3.64697 10.3029 4.09706C10.753 4.54714 11.3635 4.8 12 4.8C12.6365 4.8 13.247 4.54714 13.6971 4.09706C14.1471 3.64697 14.4 3.03652 14.4 2.4C14.4 1.76348 14.1471 1.15303 13.6971 0.702944C13.247 0.252856 12.6365 0 12 0C11.3635 0 10.753 0.252856 10.3029 0.702944C9.85286 1.15303 9.6 1.76348 9.6 2.4Z"
          fill="#3C538F"/>
    <path d="M16.3882 5.21176C16.3882 5.84828 16.6411 6.45873 17.0912 6.90881C17.5413 7.3589 18.1517 7.61176 18.7882 7.61176C19.4248 7.61176 20.0352 7.3589 20.4853 6.90881C20.9354 6.45873 21.1882 5.84828 21.1882 5.21176C21.1882 4.57524 20.9354 3.96479 20.4853 3.5147C20.0352 3.06461 19.4248 2.81176 18.7882 2.81176C18.1517 2.81176 17.5413 3.06461 17.0912 3.5147C16.6411 3.96479 16.3882 4.57524 16.3882 5.21176Z"
          fill="#9BB2F9"/>
    <path d="M19.2 12C19.2 12.6365 19.4529 13.247 19.9029 13.6971C20.353 14.1471 20.9635 14.4 21.6 14.4C22.2365 14.4 22.847 14.1471 23.2971 13.6971C23.7471 13.247 24 12.6365 24 12C24 11.3635 23.7471 10.753 23.2971 10.3029C22.847 9.85286 22.2365 9.6 21.6 9.6C20.9635 9.6 20.353 9.85286 19.9029 10.3029C19.4529 10.753 19.2 11.3635 19.2 12Z"
          fill="#3C538F"/>
    <path d="M16.3882 18.7882C16.3882 19.4248 16.6411 20.0352 17.0912 20.4853C17.5413 20.9354 18.1517 21.1882 18.7882 21.1882C19.4248 21.1882 20.0352 20.9354 20.4853 20.4853C20.9354 20.0352 21.1882 19.4248 21.1882 18.7882C21.1882 18.1517 20.9354 17.5413 20.4853 17.0912C20.0352 16.6411 19.4248 16.3882 18.7882 16.3882C18.1517 16.3882 17.5413 16.6411 17.0912 17.0912C16.6411 17.5413 16.3882 18.1517 16.3882 18.7882Z"
          fill="#9BB2F9"/>
    <path d="M9.6 21.6C9.6 22.2365 9.85286 22.847 10.3029 23.2971C10.753 23.7471 11.3635 24 12 24C12.6365 24 13.247 23.7471 13.6971 23.2971C14.1471 22.847 14.4 22.2365 14.4 21.6C14.4 20.9635 14.1471 20.353 13.6971 19.9029C13.247 19.4529 12.6365 19.2 12 19.2C11.3635 19.2 10.753 19.4529 10.3029 19.9029C9.85286 20.353 9.6 20.9635 9.6 21.6Z"
          fill="#3C538F"/>
    <path d="M2.81176 18.7882C2.81176 19.4248 3.06461 20.0352 3.5147 20.4853C3.96479 20.9354 4.57524 21.1882 5.21176 21.1882C5.84828 21.1882 6.45873 20.9354 6.90881 20.4853C7.3589 20.0352 7.61176 19.4248 7.61176 18.7882C7.61176 18.1517 7.3589 17.5413 6.90881 17.0912C6.45873 16.6411 5.84828 16.3882 5.21176 16.3882C4.57524 16.3882 3.96479 16.6411 3.5147 17.0912C3.06461 17.5413 2.81176 18.1517 2.81176 18.7882Z"
          fill="#9BB2F9"/>
    <path d="M0 12C0 12.6365 0.252856 13.247 0.702944 13.6971C1.15303 14.1471 1.76348 14.4 2.4 14.4C3.03652 14.4 3.64697 14.1471 4.09706 13.6971C4.54714 13.247 4.8 12.6365 4.8 12C4.8 11.3635 4.54714 10.753 4.09706 10.3029C3.64697 9.85286 3.03652 9.6 2.4 9.6C1.76348 9.6 1.15303 9.85286 0.702944 10.3029C0.252856 10.753 0 11.3635 0 12Z"
          fill="#3C538F"/>
    <path d="M2.81176 5.21176C2.81176 5.84828 3.06461 6.45873 3.5147 6.90881C3.96479 7.3589 4.57524 7.61176 5.21176 7.61176C5.84828 7.61176 6.45873 7.3589 6.90881 6.90881C7.3589 6.45873 7.61176 5.84828 7.61176 5.21176C7.61176 4.57524 7.3589 3.96479 6.90881 3.5147C6.45873 3.06461 5.84828 2.81176 5.21176 2.81176C4.57524 2.81176 3.96479 3.06461 3.5147 3.5147C3.06461 3.96479 2.81176 4.57524 2.81176 5.21176Z"
          fill="#9BB2F9"/>
    <path d="M30.5834 15.48C29.4847 14.4027 28.9354 13.0373 28.9354 11.384C28.9354 9.73067 29.4847 8.36533 30.5834 7.288C31.6927 6.21067 33.0474 5.672 34.6474 5.672C35.8634 5.672 36.9407 5.98133 37.8794 6.6C38.8287 7.21867 39.506 8.088 39.9114 9.208H37.2074C36.706 8.22667 35.8527 7.736 34.6474 7.736C33.634 7.736 32.8074 8.072 32.1674 8.744C31.538 9.40533 31.2234 10.2907 31.2234 11.4C31.2234 12.4987 31.538 13.384 32.1674 14.056C32.8074 14.7173 33.634 15.048 34.6474 15.048C35.842 15.048 36.6954 14.5573 37.2074 13.576H39.9114C39.506 14.696 38.8287 15.5653 37.8794 16.184C36.9407 16.792 35.8634 17.096 34.6474 17.096C33.0367 17.096 31.682 16.5573 30.5834 15.48Z"
          fill="#303D6C"/>
    <path d="M47.9683 8.136H50.2243V17H47.9683V15.656C47.4029 16.6267 46.4802 17.112 45.2002 17.112C44.1976 17.112 43.3763 16.7813 42.7363 16.12C42.0963 15.448 41.7762 14.52 41.7762 13.336V8.136H44.0163V13.016C44.0163 13.7093 44.1922 14.2427 44.5443 14.616C44.8963 14.9893 45.3763 15.176 45.9842 15.176C46.5923 15.176 47.0723 14.9893 47.4243 14.616C47.7869 14.2427 47.9683 13.7093 47.9683 13.016V8.136Z"
          fill="#303D6C"/>
    <path d="M52.1259 10.728C52.1259 9.96 52.4512 9.31467 53.1019 8.792C53.7525 8.26933 54.6165 8.008 55.6939 8.008C56.7712 8.008 57.6352 8.26933 58.2859 8.792C58.9365 9.304 59.2832 10.0027 59.3259 10.888H57.0219C56.9579 10.1413 56.4992 9.768 55.6459 9.768C55.2192 9.768 54.8885 9.85333 54.6539 10.024C54.4192 10.1947 54.3019 10.4293 54.3019 10.728C54.3019 11.0267 54.4779 11.2613 54.8299 11.432C55.1819 11.6027 55.6085 11.736 56.1099 11.832C56.6112 11.928 57.1072 12.0507 57.5979 12.2C58.0992 12.3387 58.5259 12.5947 58.8779 12.968C59.2299 13.3307 59.4059 13.816 59.4059 14.424C59.4059 15.224 59.0645 15.8747 58.3819 16.376C57.7099 16.8773 56.8459 17.128 55.7899 17.128C54.7445 17.128 53.8859 16.8827 53.2139 16.392C52.5419 15.8907 52.1739 15.176 52.1099 14.248H54.4139C54.4992 14.9947 54.9739 15.368 55.8379 15.368C56.2539 15.368 56.5899 15.2773 56.8459 15.096C57.1019 14.904 57.2299 14.6587 57.2299 14.36C57.2299 14.0507 57.0539 13.8107 56.7019 13.64C56.3499 13.4587 55.9232 13.32 55.4219 13.224C54.9205 13.128 54.4192 13.0107 53.9179 12.872C53.4272 12.7333 53.0059 12.488 52.6539 12.136C52.3019 11.7733 52.1259 11.304 52.1259 10.728Z"
          fill="#303D6C"/>
    <path d="M64.765 15.112H65.837V17H64.413C63.5063 17 62.8077 16.792 62.317 16.376C61.8263 15.96 61.581 15.272 61.581 14.312V9.976H60.637V8.136H61.581V5.944H63.837V8.136H65.821V9.976H63.837V14.312C63.837 14.6 63.9063 14.808 64.045 14.936C64.1837 15.0533 64.4237 15.112 64.765 15.112Z"
          fill="#303D6C"/>
    <path d="M71.5266 15.224C72.156 15.224 72.6946 14.9947 73.1426 14.536C73.6013 14.0667 73.8306 13.4107 73.8306 12.568C73.8306 11.7147 73.6066 11.0587 73.1586 10.6C72.7106 10.1413 72.1666 9.912 71.5266 9.912C70.8973 9.912 70.364 10.1413 69.9266 10.6C69.4893 11.0587 69.2706 11.7147 69.2706 12.568C69.2706 13.4213 69.4893 14.0773 69.9266 14.536C70.364 14.9947 70.8973 15.224 71.5266 15.224ZM68.2786 15.864C67.4146 15.0213 66.9826 13.9173 66.9826 12.552C66.9826 11.1867 67.42 10.088 68.2946 9.256C69.1693 8.424 70.252 8.008 71.5426 8.008C72.844 8.008 73.932 8.424 74.8066 9.256C75.6813 10.088 76.1186 11.1867 76.1186 12.552C76.1186 13.9173 75.676 15.0213 74.7906 15.864C73.916 16.7067 72.828 17.128 71.5266 17.128C70.2253 17.128 69.1426 16.7067 68.2786 15.864Z"
          fill="#303D6C"/>
    <path d="M80.1591 8.136V9.464C80.7245 8.49333 81.6418 8.008 82.9111 8.008C83.5831 8.008 84.1805 8.16267 84.7031 8.472C85.2365 8.78133 85.6471 9.224 85.9351 9.8C86.2445 9.24533 86.6658 8.808 87.1991 8.488C87.7431 8.168 88.3511 8.008 89.0231 8.008C90.0791 8.008 90.9271 8.33867 91.5671 9C92.2178 9.66133 92.5431 10.5893 92.5431 11.784V17H90.3031V12.104C90.3031 11.4107 90.1271 10.8827 89.7751 10.52C89.4231 10.1467 88.9431 9.96 88.3351 9.96C87.7271 9.96 87.2418 10.1467 86.8791 10.52C86.5271 10.8827 86.3511 11.4107 86.3511 12.104V17H84.1111V12.104C84.1111 11.4107 83.9351 10.8827 83.5831 10.52C83.2311 10.1467 82.7511 9.96 82.1431 9.96C81.5351 9.96 81.0498 10.1467 80.6871 10.52C80.3351 10.8827 80.1591 11.4107 80.1591 12.104V17H77.9031V8.136H80.1591Z"
          fill="#303D6C"/>
    <path d="M98.6003 17.128C97.3096 17.128 96.2589 16.712 95.4482 15.88C94.6376 15.0373 94.2322 13.928 94.2322 12.552C94.2322 11.176 94.6376 10.0773 95.4482 9.256C96.2696 8.424 97.3256 8.008 98.6162 8.008C99.9176 8.008 100.984 8.41333 101.816 9.224C102.648 10.024 103.064 11.096 103.064 12.44C103.064 12.7493 103.043 13.0373 103 13.304H96.5362C96.5896 13.88 96.8029 14.344 97.1762 14.696C97.5496 15.048 98.0243 15.224 98.6003 15.224C99.3789 15.224 99.9549 14.904 100.328 14.264H102.76C102.504 15.1067 102.008 15.7947 101.272 16.328C100.536 16.8613 99.6456 17.128 98.6003 17.128ZM100.728 11.848C100.696 11.2613 100.478 10.792 100.072 10.44C99.6776 10.088 99.1976 9.912 98.6322 9.912C98.0669 9.912 97.5923 10.088 97.2083 10.44C96.8349 10.792 96.6109 11.2613 96.5362 11.848H100.728Z"
          fill="#303D6C"/>
    <path d="M107.097 8.136V9.704C107.694 8.57333 108.558 8.008 109.689 8.008V10.312H109.129C108.457 10.312 107.95 10.4827 107.609 10.824C107.267 11.1547 107.097 11.7307 107.097 12.552V17H104.841V8.136H107.097Z"
          fill="#303D6C"/>
    <path d="M117.115 15.48C116.016 14.4027 115.467 13.0373 115.467 11.384C115.467 9.73067 116.016 8.36533 117.115 7.288C118.224 6.21067 119.579 5.672 121.179 5.672C122.395 5.672 123.472 5.98133 124.411 6.6C125.36 7.21867 126.037 8.088 126.443 9.208H123.739C123.237 8.22667 122.384 7.736 121.179 7.736C120.165 7.736 119.339 8.072 118.699 8.744C118.069 9.40533 117.755 10.2907 117.755 11.4C117.755 12.4987 118.069 13.384 118.699 14.056C119.339 14.7173 120.165 15.048 121.179 15.048C122.373 15.048 123.227 14.5573 123.739 13.576H126.443C126.037 14.696 125.36 15.5653 124.411 16.184C123.472 16.792 122.395 17.096 121.179 17.096C119.568 17.096 118.213 16.5573 117.115 15.48Z"
          fill="#303D6C"/>
    <path d="M132.132 17.128C130.841 17.128 129.79 16.712 128.98 15.88C128.169 15.0373 127.763 13.928 127.763 12.552C127.763 11.176 128.169 10.0773 128.98 9.256C129.801 8.424 130.857 8.008 132.148 8.008C133.449 8.008 134.516 8.41333 135.348 9.224C136.18 10.024 136.596 11.096 136.596 12.44C136.596 12.7493 136.574 13.0373 136.531 13.304H130.068C130.121 13.88 130.334 14.344 130.708 14.696C131.081 15.048 131.555 15.224 132.132 15.224C132.91 15.224 133.486 14.904 133.859 14.264H136.292C136.036 15.1067 135.539 15.7947 134.803 16.328C134.068 16.8613 133.177 17.128 132.132 17.128ZM134.26 11.848C134.228 11.2613 134.009 10.792 133.604 10.44C133.209 10.088 132.729 9.912 132.163 9.912C131.598 9.912 131.124 10.088 130.74 10.44C130.366 10.792 130.142 11.2613 130.068 11.848H134.26Z"
          fill="#303D6C"/>
    <path d="M140.628 8.136V9.464C141.193 8.49333 142.111 8.008 143.38 8.008C144.393 8.008 145.22 8.344 145.86 9.016C146.5 9.67733 146.82 10.6 146.82 11.784V17H144.58V12.104C144.58 11.4107 144.404 10.8827 144.052 10.52C143.7 10.1467 143.22 9.96 142.612 9.96C142.004 9.96 141.519 10.1467 141.156 10.52C140.804 10.8827 140.628 11.4107 140.628 12.104V17H138.372V8.136H140.628Z"
          fill="#303D6C"/>
    <path d="M152.577 15.112H153.65V17H152.225C151.319 17 150.62 16.792 150.13 16.376C149.639 15.96 149.393 15.272 149.393 14.312V9.976H148.449V8.136H149.393V5.944H151.65V8.136H153.633V9.976H151.65V14.312C151.65 14.6 151.719 14.808 151.857 14.936C151.996 15.0533 152.236 15.112 152.577 15.112Z"
          fill="#303D6C"/>
    <path d="M159.147 17.128C157.856 17.128 156.806 16.712 155.995 15.88C155.184 15.0373 154.779 13.928 154.779 12.552C154.779 11.176 155.184 10.0773 155.995 9.256C156.816 8.424 157.872 8.008 159.163 8.008C160.464 8.008 161.531 8.41333 162.363 9.224C163.195 10.024 163.611 11.096 163.611 12.44C163.611 12.7493 163.59 13.0373 163.547 13.304H157.083C157.136 13.88 157.35 14.344 157.723 14.696C158.096 15.048 158.571 15.224 159.147 15.224C159.926 15.224 160.502 14.904 160.875 14.264H163.307C163.051 15.1067 162.555 15.7947 161.819 16.328C161.083 16.8613 160.192 17.128 159.147 17.128ZM161.275 11.848C161.243 11.2613 161.024 10.792 160.619 10.44C160.224 10.088 159.744 9.912 159.179 9.912C158.614 9.912 158.139 10.088 157.755 10.44C157.382 10.792 157.158 11.2613 157.083 11.848H161.275Z"
          fill="#303D6C"/>
    <path d="M167.643 8.136V9.704C168.241 8.57333 169.105 8.008 170.236 8.008V10.312H169.676C169.004 10.312 168.497 10.4827 168.156 10.824C167.814 11.1547 167.643 11.7307 167.643 12.552V17H165.387V8.136H167.643Z"
          fill="#303D6C"/>
</svg>
