<svg xmlns="http://www.w3.org/2000/svg" preserveAspectRatio="xMidYMid meet" viewBox="0 0 24 24" fill="none">
    <path d="M7.5 3.75C6.75832 3.75 6.0333 3.96994 5.41661 4.38199C4.79993 4.79405 4.31928 5.37972 4.03545 6.06494C3.75162 6.75016 3.67736 7.50416 3.82206 8.23159C3.96675 8.95902 4.3239 9.6272 4.84835 10.1517C5.3728 10.6761 6.04098 11.0333 6.76841 11.1779C7.49584 11.3226 8.24984 11.2484 8.93506 10.9646C9.62029 10.6807 10.206 10.2001 10.618 9.58339C11.0301 8.96671 11.25 8.24168 11.25 7.5C11.25 6.50544 10.8549 5.55161 10.1517 4.84835C9.44839 4.14509 8.49456 3.75 7.5 3.75ZM7.5 9.75C7.05499 9.75 6.61998 9.61804 6.24997 9.37081C5.87996 9.12358 5.59157 8.77217 5.42127 8.36104C5.25098 7.94991 5.20642 7.49751 5.29323 7.06105C5.38005 6.62459 5.59434 6.22368 5.90901 5.90901C6.22368 5.59434 6.62459 5.38005 7.06105 5.29323C7.49751 5.20642 7.94991 5.25098 8.36104 5.42127C8.77217 5.59157 9.12358 5.87996 9.37081 6.24997C9.61804 6.61998 9.75 7.05499 9.75 7.5C9.75 8.09674 9.51295 8.66904 9.09099 9.09099C8.66904 9.51295 8.09674 9.75 7.5 9.75ZM16.5 11.25C17.2417 11.25 17.9667 11.0301 18.5834 10.618C19.2001 10.206 19.6807 9.62029 19.9646 8.93506C20.2484 8.24984 20.3226 7.49584 20.1779 6.76841C20.0333 6.04098 19.6761 5.3728 19.1517 4.84835C18.6272 4.3239 17.959 3.96675 17.2316 3.82206C16.5042 3.67736 15.7502 3.75162 15.0649 4.03545C14.3797 4.31928 13.794 4.79993 13.382 5.41661C12.9699 6.0333 12.75 6.75832 12.75 7.5C12.75 8.49456 13.1451 9.44839 13.8484 10.1517C14.5516 10.8549 15.5054 11.25 16.5 11.25ZM16.5 5.25C16.945 5.25 17.38 5.38196 17.75 5.6292C18.12 5.87643 18.4084 6.22783 18.5787 6.63896C18.749 7.0501 18.7936 7.5025 18.7068 7.93895C18.62 8.37541 18.4057 8.77632 18.091 9.09099C17.7763 9.40566 17.3754 9.61995 16.939 9.70677C16.5025 9.79359 16.0501 9.74903 15.639 9.57873C15.2278 9.40843 14.8764 9.12005 14.6292 8.75003C14.382 8.38002 14.25 7.94501 14.25 7.5C14.25 6.90326 14.4871 6.33097 14.909 5.90901C15.331 5.48705 15.9033 5.25 16.5 5.25ZM7.5 12.75C6.75832 12.75 6.0333 12.9699 5.41661 13.382C4.79993 13.794 4.31928 14.3797 4.03545 15.0649C3.75162 15.7502 3.67736 16.5042 3.82206 17.2316C3.96675 17.959 4.3239 18.6272 4.84835 19.1517C5.3728 19.6761 6.04098 20.0333 6.76841 20.1779C7.49584 20.3226 8.24984 20.2484 8.93506 19.9646C9.62029 19.6807 10.206 19.2001 10.618 18.5834C11.0301 17.9667 11.25 17.2417 11.25 16.5C11.25 15.5054 10.8549 14.5516 10.1517 13.8484C9.44839 13.1451 8.49456 12.75 7.5 12.75ZM7.5 18.75C7.05499 18.75 6.61998 18.618 6.24997 18.3708C5.87996 18.1236 5.59157 17.7722 5.42127 17.361C5.25098 16.9499 5.20642 16.4975 5.29323 16.061C5.38005 15.6246 5.59434 15.2237 5.90901 14.909C6.22368 14.5943 6.62459 14.3801 7.06105 14.2932C7.49751 14.2064 7.94991 14.251 8.36104 14.4213C8.77217 14.5916 9.12358 14.88 9.37081 15.25C9.61804 15.62 9.75 16.055 9.75 16.5C9.75 17.0967 9.51295 17.669 9.09099 18.091C8.66904 18.5129 8.09674 18.75 7.5 18.75ZM20.25 16.5C20.25 16.6989 20.171 16.8897 20.0303 17.0303C19.8897 17.171 19.6989 17.25 19.5 17.25H17.25V19.5C17.25 19.6989 17.171 19.8897 17.0303 20.0303C16.8897 20.171 16.6989 20.25 16.5 20.25C16.3011 20.25 16.1103 20.171 15.9697 20.0303C15.829 19.8897 15.75 19.6989 15.75 19.5V17.25H13.5C13.3011 17.25 13.1103 17.171 12.9697 17.0303C12.829 16.8897 12.75 16.6989 12.75 16.5C12.75 16.3011 12.829 16.1103 12.9697 15.9697C13.1103 15.829 13.3011 15.75 13.5 15.75H15.75V13.5C15.75 13.3011 15.829 13.1103 15.9697 12.9697C16.1103 12.829 16.3011 12.75 16.5 12.75C16.6989 12.75 16.8897 12.829 17.0303 12.9697C17.171 13.1103 17.25 13.3011 17.25 13.5V15.75H19.5C19.6989 15.75 19.8897 15.829 20.0303 15.9697C20.171 16.1103 20.25 16.3011 20.25 16.5Z" fill="#202939"/>
</svg>