<svg preserveAspectRatio="xMidYMid meet" viewBox="0 0 24 24" fill="none" xmlns="http://www.w3.org/2000/svg">
    <path d="M10.9921 14.805C11.9973 14.1358 12.7605 13.1609 13.1687 12.0244C13.577 10.888 13.6087 9.65027 13.2591 8.4944C12.9095 7.33853 12.1973 6.32584 11.2276 5.60608C10.258 4.88632 9.0825 4.49771 7.87492 4.49771C6.66735 4.49771 5.49184 4.88632 4.52221 5.60608C3.55258 6.32584 2.84032 7.33853 2.49076 8.4944C2.1412 9.65027 2.17288 10.888 2.58114 12.0244C2.9894 13.1609 3.75255 14.1358 4.75774 14.805C2.93945 15.4752 1.38659 16.7153 0.330862 18.3403C0.275377 18.4228 0.236837 18.5154 0.217482 18.6129C0.198127 18.7104 0.198344 18.8108 0.218119 18.9082C0.237895 19.0056 0.276835 19.0981 0.332676 19.1803C0.388516 19.2626 0.460144 19.3329 0.543396 19.3872C0.626647 19.4415 0.719861 19.4787 0.81762 19.4966C0.915378 19.5146 1.01573 19.5129 1.11285 19.4918C1.20996 19.4706 1.3019 19.4304 1.38332 19.3733C1.46473 19.3163 1.53401 19.2437 1.58711 19.1597C2.2681 18.1123 3.19995 17.2516 4.29802 16.6558C5.3961 16.06 6.62562 15.7479 7.87492 15.7479C9.12423 15.7479 10.3538 16.06 11.4518 16.6558C12.5499 17.2516 13.4817 18.1123 14.1627 19.1597C14.2727 19.3232 14.4427 19.4368 14.6358 19.476C14.8289 19.5152 15.0297 19.4768 15.1947 19.3692C15.3598 19.2615 15.4758 19.0933 15.5178 18.9007C15.5598 18.7082 15.5243 18.5069 15.419 18.3403C14.3633 16.7153 12.8104 15.4752 10.9921 14.805ZM3.74992 10.125C3.74992 9.30915 3.99185 8.51162 4.44511 7.83327C4.89837 7.15491 5.54261 6.6262 6.29636 6.31399C7.0501 6.00178 7.8795 5.92009 8.67967 6.07925C9.47984 6.23842 10.2148 6.63129 10.7917 7.20818C11.3686 7.78507 11.7615 8.52007 11.9207 9.32025C12.0798 10.1204 11.9981 10.9498 11.6859 11.7036C11.3737 12.4573 10.845 13.1015 10.1667 13.5548C9.4883 14.0081 8.69077 14.25 7.87492 14.25C6.78129 14.2488 5.7328 13.8138 4.95948 13.0404C4.18616 12.2671 3.75117 11.2186 3.74992 10.125ZM23.4506 19.3781C23.284 19.4868 23.081 19.5248 22.8864 19.4838C22.6918 19.4428 22.5214 19.3263 22.4127 19.1597C21.7326 18.1117 20.8008 17.2506 19.7025 16.655C18.6042 16.0595 17.3743 15.7483 16.1249 15.75C15.926 15.75 15.7352 15.671 15.5946 15.5303C15.4539 15.3897 15.3749 15.1989 15.3749 15C15.3749 14.8011 15.4539 14.6103 15.5946 14.4697C15.7352 14.329 15.926 14.25 16.1249 14.25C16.7324 14.2494 17.3322 14.1147 17.8816 13.8554C18.431 13.5961 18.9163 13.2187 19.3029 12.7502C19.6895 12.2816 19.9678 11.7334 20.118 11.1448C20.2682 10.5562 20.2865 9.94165 20.1716 9.34513C20.0568 8.74862 19.8116 8.18483 19.4536 7.69405C19.0956 7.20328 18.6337 6.79763 18.1007 6.50609C17.5678 6.21455 16.977 6.04432 16.3707 6.00756C15.7643 5.97079 15.1573 6.06841 14.5931 6.29343C14.501 6.3332 14.402 6.35413 14.3018 6.35498C14.2016 6.35582 14.1022 6.33657 14.0095 6.29836C13.9169 6.26015 13.8328 6.20376 13.7623 6.13251C13.6918 6.06126 13.6363 5.97661 13.5991 5.88355C13.5619 5.79049 13.5437 5.69091 13.5456 5.5907C13.5475 5.49049 13.5695 5.39168 13.6102 5.3001C13.651 5.20853 13.7097 5.12606 13.7828 5.05755C13.856 4.98904 13.9421 4.93589 14.0362 4.90124C15.3275 4.38623 16.7639 4.3677 18.0681 4.84922C19.3723 5.33074 20.452 6.2782 21.0989 7.50882C21.7458 8.73944 21.914 10.166 21.5711 11.5134C21.2283 12.8607 20.3986 14.0333 19.2421 14.805C21.0604 15.4752 22.6133 16.7153 23.669 18.3403C23.7776 18.5069 23.8156 18.7098 23.7747 18.9044C23.7337 19.0991 23.6171 19.2694 23.4506 19.3781Z"
          fill="#202939"/>
</svg>
