<svg xmlns="http://www.w3.org/2000/svg" preserveAspectRatio="xMidYMid meet" viewBox="0 0 18 18" fill="none">
    <path d="M15.0233 7.14798L9.39828 12.773C9.34604 12.8253 9.284 12.8668 9.21572 12.8951C9.14743 12.9234 9.07423 12.938 9.00031 12.938C8.92639 12.938 8.8532 12.9234 8.78491 12.8951C8.71662 12.8668 8.65458 12.8253 8.60234 12.773L2.97734 7.14798C2.8718 7.04243 2.8125 6.89927 2.8125 6.75001C2.8125 6.60074 2.8718 6.45759 2.97734 6.35204C3.08289 6.24649 3.22605 6.18719 3.37531 6.18719C3.52458 6.18719 3.66773 6.24649 3.77328 6.35204L9.00031 11.5798L14.2273 6.35204C14.2796 6.29978 14.3417 6.25832 14.4099 6.23004C14.4782 6.20175 14.5514 6.18719 14.6253 6.18719C14.6992 6.18719 14.7724 6.20175 14.8407 6.23004C14.909 6.25832 14.971 6.29978 15.0233 6.35204C15.0755 6.4043 15.117 6.46634 15.1453 6.53463C15.1736 6.60291 15.1881 6.6761 15.1881 6.75001C15.1881 6.82392 15.1736 6.8971 15.1453 6.96539C15.117 7.03367 15.0755 7.09571 15.0233 7.14798Z" fill="#202939"/>
</svg>