<svg xmlns="http://www.w3.org/2000/svg" preserveAspectRatio="xMidYMid meet" viewBox="0 0 24 25" fill="none">
    <path d="M19.281 18.7194C19.3507 18.7891 19.406 18.8718 19.4437 18.9628C19.4814 19.0539 19.5008 19.1515 19.5008 19.25C19.5008 19.3485 19.4814 19.4461 19.4437 19.5372C19.406 19.6282 19.3507 19.7109 19.281 19.7806C19.2114 19.8503 19.1286 19.9056 19.0376 19.9433C18.9465 19.981 18.849 20.0004 18.7504 20.0004C18.6519 20.0004 18.5543 19.981 18.4632 19.9433C18.3722 19.9056 18.2895 19.8503 18.2198 19.7806L12.0004 13.5603L5.78104 19.7806C5.64031 19.9214 5.44944 20.0004 5.25042 20.0004C5.05139 20.0004 4.86052 19.9214 4.71979 19.7806C4.57906 19.6399 4.5 19.449 4.5 19.25C4.5 19.051 4.57906 18.8601 4.71979 18.7194L10.9401 12.5L4.71979 6.28063C4.57906 6.1399 4.5 5.94902 4.5 5.75C4.5 5.55098 4.57906 5.36011 4.71979 5.21938C4.86052 5.07865 5.05139 4.99958 5.25042 4.99958C5.44944 4.99958 5.64031 5.07865 5.78104 5.21938L12.0004 11.4397L18.2198 5.21938C18.3605 5.07865 18.5514 4.99958 18.7504 4.99958C18.9494 4.99958 19.1403 5.07865 19.281 5.21938C19.4218 5.36011 19.5008 5.55098 19.5008 5.75C19.5008 5.94902 19.4218 6.1399 19.281 6.28063L13.0607 12.5L19.281 18.7194Z" fill="#DE6449"/>
</svg>