<svg xmlns="http://www.w3.org/2000/svg" preserveAspectRatio="xMidYMid meet" viewBox="0 0 24 25" fill="none">
    <path d="M21.531 7.78063L9.53104 19.7806C9.46139 19.8504 9.37867 19.9057 9.28762 19.9434C9.19657 19.9812 9.09898 20.0006 9.00042 20.0006C8.90186 20.0006 8.80426 19.9812 8.71321 19.9434C8.62216 19.9057 8.53945 19.8504 8.46979 19.7806L3.21979 14.5306C3.07906 14.3899 3 14.199 3 14C3 13.801 3.07906 13.6101 3.21979 13.4694C3.36052 13.3286 3.55139 13.2496 3.75042 13.2496C3.94944 13.2496 4.14031 13.3286 4.28104 13.4694L9.00042 18.1897L20.4698 6.71938C20.6105 6.57865 20.8014 6.49959 21.0004 6.49959C21.1994 6.49959 21.3903 6.57865 21.531 6.71938C21.6718 6.86011 21.7508 7.05098 21.7508 7.25C21.7508 7.44903 21.6718 7.6399 21.531 7.78063Z" fill="#69C0A5"/>
</svg>