<svg width="25" height="24" viewBox="0 0 24 24" fill="none" xmlns="http://www.w3.org/2000/svg">
    <path d="M21.5 14.25V19.5C21.5 19.8978 21.342 20.2794 21.0607 20.5607C20.7794 20.842 20.3978 21 20 21H5C4.60218 21 4.22064 20.842 3.93934 20.5607C3.65804 20.2794 3.5 19.8978 3.5 19.5V14.25C3.5 14.0511 3.57902 13.8603 3.71967 13.7197C3.86032 13.579 4.05109 13.5 4.25 13.5C4.44891 13.5 4.63968 13.579 4.78033 13.7197C4.92098 13.8603 5 14.0511 5 14.25V19.5H20V14.25C20 14.0511 20.079 13.8603 20.2197 13.7197C20.3603 13.579 20.5511 13.5 20.75 13.5C20.9489 13.5 21.1397 13.579 21.2803 13.7197C21.421 13.8603 21.5 14.0511 21.5 14.25ZM9.28063 8.03064L11.75 5.56032V14.25C11.75 14.4489 11.829 14.6397 11.9697 14.7803C12.1103 14.921 12.3011 15 12.5 15C12.6989 15 12.8897 14.921 13.0303 14.7803C13.171 14.6397 13.25 14.4489 13.25 14.25V5.56032L15.7194 8.03064C15.8601 8.17137 16.051 8.25043 16.25 8.25043C16.449 8.25043 16.6399 8.17137 16.7806 8.03064C16.9214 7.8899 17.0004 7.69903 17.0004 7.50001C17.0004 7.30099 16.9214 7.11012 16.7806 6.96938L13.0306 3.21939C12.961 3.14965 12.8783 3.09433 12.7872 3.05659C12.6962 3.01885 12.5986 2.99942 12.5 2.99942C12.4014 2.99942 12.3038 3.01885 12.2128 3.05659C12.1217 3.09433 12.039 3.14965 11.9694 3.21939L8.21937 6.96938C8.07864 7.11012 7.99958 7.30099 7.99958 7.50001C7.99958 7.69903 8.07864 7.8899 8.21937 8.03064C8.36011 8.17137 8.55098 8.25043 8.75 8.25043C8.94902 8.25043 9.13989 8.17137 9.28063 8.03064Z"
          fill="white"/>
</svg>
