<svg xmlns="http://www.w3.org/2000/svg" preserveAspectRatio="xMidYMid meet" viewBox="0 0 32 32" fill="none">
    <path d="M15.75 19C15.75 19.1989 15.671 19.3897 15.5303 19.5303C15.3897 19.671 15.1989 19.75 15 19.75H13.75V26C13.75 26.1989 13.671 26.3897 13.5303 26.5303C13.3897 26.671 13.1989 26.75 13 26.75C12.8011 26.75 12.6103 26.671 12.4697 26.5303C12.329 26.3897 12.25 26.1989 12.25 26V19.75H11C10.8011 19.75 10.6103 19.671 10.4697 19.5303C10.329 19.3897 10.25 19.1989 10.25 19C10.25 18.8011 10.329 18.6103 10.4697 18.4697C10.6103 18.329 10.8011 18.25 11 18.25H15C15.1989 18.25 15.3897 18.329 15.5303 18.4697C15.671 18.6103 15.75 18.8011 15.75 19ZM8 18.25C7.80109 18.25 7.61032 18.329 7.46967 18.4697C7.32902 18.6103 7.25 18.8011 7.25 19V21.75H4.75V19C4.75 18.8011 4.67098 18.6103 4.53033 18.4697C4.38968 18.329 4.19891 18.25 4 18.25C3.80109 18.25 3.61032 18.329 3.46967 18.4697C3.32902 18.6103 3.25 18.8011 3.25 19V26C3.25 26.1989 3.32902 26.3897 3.46967 26.5303C3.61032 26.671 3.80109 26.75 4 26.75C4.19891 26.75 4.38968 26.671 4.53033 26.5303C4.67098 26.3897 4.75 26.1989 4.75 26V23.25H7.25V26C7.25 26.1989 7.32902 26.3897 7.46967 26.5303C7.61032 26.671 7.80109 26.75 8 26.75C8.19891 26.75 8.38968 26.671 8.53033 26.5303C8.67098 26.3897 8.75 26.1989 8.75 26V19C8.75 18.8011 8.67098 18.6103 8.53033 18.4697C8.38968 18.329 8.19891 18.25 8 18.25ZM30 25.25H28.25V19C28.25 18.8011 28.171 18.6103 28.0303 18.4697C27.8897 18.329 27.6989 18.25 27.5 18.25C27.3011 18.25 27.1103 18.329 26.9697 18.4697C26.829 18.6103 26.75 18.8011 26.75 19V26C26.75 26.1989 26.829 26.3897 26.9697 26.5303C27.1103 26.671 27.3011 26.75 27.5 26.75H30C30.1989 26.75 30.3897 26.671 30.5303 26.5303C30.671 26.3897 30.75 26.1989 30.75 26C30.75 25.8011 30.671 25.6103 30.5303 25.4697C30.3897 25.329 30.1989 25.25 30 25.25ZM24.2 18.2775C24.0419 18.2336 23.8738 18.2426 23.7214 18.3034C23.569 18.3641 23.4408 18.4731 23.3563 18.6138L21 22.5425L18.6437 18.6138C18.5595 18.4728 18.4313 18.3634 18.2788 18.3023C18.1263 18.2413 17.958 18.2319 17.7997 18.2758C17.6414 18.3197 17.5019 18.4143 17.4026 18.5451C17.3033 18.6759 17.2497 18.8358 17.25 19V26C17.25 26.1989 17.329 26.3897 17.4697 26.5303C17.6103 26.671 17.8011 26.75 18 26.75C18.1989 26.75 18.3897 26.671 18.5303 26.5303C18.671 26.3897 18.75 26.1989 18.75 26V21.7075L20.3563 24.3862C20.4228 24.4976 20.5171 24.5898 20.6299 24.6538C20.7428 24.7178 20.8703 24.7514 21 24.7514C21.1297 24.7514 21.2572 24.7178 21.3701 24.6538C21.4829 24.5898 21.5772 24.4976 21.6437 24.3862L23.25 21.7075V26C23.25 26.1989 23.329 26.3897 23.4697 26.5303C23.6103 26.671 23.8011 26.75 24 26.75C24.1989 26.75 24.3897 26.671 24.5303 26.5303C24.671 26.3897 24.75 26.1989 24.75 26V19C24.7499 18.836 24.6961 18.6765 24.5968 18.5461C24.4974 18.4156 24.3581 18.3212 24.2 18.2775ZM26.75 14C26.75 14.1989 26.671 14.3897 26.5303 14.5303C26.3897 14.671 26.1989 14.75 26 14.75C25.8011 14.75 25.6103 14.671 25.4697 14.5303C25.329 14.3897 25.25 14.1989 25.25 14V11.75H19C18.8011 11.75 18.6103 11.671 18.4697 11.5303C18.329 11.3897 18.25 11.1989 18.25 11V4.75H7C6.9337 4.75 6.87011 4.77634 6.82322 4.82322C6.77634 4.87011 6.75 4.9337 6.75 5V14C6.75 14.1989 6.67098 14.3897 6.53033 14.5303C6.38968 14.671 6.19891 14.75 6 14.75C5.80109 14.75 5.61032 14.671 5.46967 14.5303C5.32902 14.3897 5.25 14.1989 5.25 14V5C5.25 4.53587 5.43437 4.09075 5.76256 3.76256C6.09075 3.43437 6.53587 3.25 7 3.25H19C19.0987 3.24992 19.1964 3.26932 19.2875 3.30707C19.3787 3.34482 19.4615 3.40019 19.5312 3.47L26.5312 10.47C26.6715 10.6107 26.7502 10.8013 26.75 11V14ZM24.19 10.25L19.75 5.81V10.25H24.19Z"
          fill="#9095A3"/>
</svg>
