<svg xmlns="http://www.w3.org/2000/svg" preserveAspectRatio="xMidYMid meet" viewBox="0 0 20 20" fill="none">
    <path d="M17.8125 10.0001C17.8125 10.2488 17.7137 10.4872 17.5379 10.663C17.3621 10.8388 17.1236 10.9376 16.875 10.9376H5.39063L9.41563 14.9618C9.59175 15.138 9.6907 15.3768 9.6907 15.6259C9.6907 15.875 9.59175 16.1138 9.41563 16.29C9.23951 16.4661 9.00064 16.565 8.75157 16.565C8.5025 16.565 8.26363 16.4661 8.08751 16.29L2.46251 10.665C2.37511 10.5779 2.30576 10.4744 2.25844 10.3604C2.21112 10.2465 2.18677 10.1243 2.18677 10.0009C2.18677 9.87751 2.21112 9.75533 2.25844 9.64138C2.30576 9.52742 2.37511 9.42393 2.46251 9.33683L8.08751 3.71183C8.17471 3.62463 8.27824 3.55545 8.39218 3.50825C8.50612 3.46106 8.62824 3.43677 8.75157 3.43677C8.8749 3.43677 8.99702 3.46106 9.11096 3.50825C9.2249 3.55545 9.32843 3.62463 9.41563 3.71183C9.50284 3.79904 9.57201 3.90257 9.61921 4.01651C9.6664 4.13045 9.6907 4.25257 9.6907 4.37589C9.6907 4.49922 9.6664 4.62134 9.61921 4.73528C9.57201 4.84922 9.50284 4.95275 9.41563 5.03996L5.39063 9.06261H16.875C17.1236 9.06261 17.3621 9.16138 17.5379 9.3372C17.7137 9.51302 17.8125 9.75147 17.8125 10.0001Z"
          fill="#9095A3"/>
</svg>
